<svg width="48" height="48" viewBox="0 0 48 48" fill="none" xmlns="http://www.w3.org/2000/svg">
<path d="M4 41.5C3.99983 38.4207 4.88827 35.4067 6.55869 32.8198C8.22911 30.2329 10.6105 28.1829 13.4172 26.916C16.2239 25.6491 19.3365 25.219 22.3815 25.6774C25.4266 26.1357 28.2747 27.463 30.584 29.5M38 31.5V43.5M44 37.5H32M30 15.5C30 21.0228 25.5228 25.5 20 25.5C14.4772 25.5 10 21.0228 10 15.5C10 9.97715 14.4772 5.5 20 5.5C25.5228 5.5 30 9.97715 30 15.5Z" stroke="#6B7280" stroke-width="2" stroke-linecap="round" stroke-linejoin="round"/>
</svg>
