<svg width="32" height="32" viewBox="0 0 32 32" fill="none" xmlns="http://www.w3.org/2000/svg">
<path d="M14.5514 17.447C14.2966 17.1926 13.9929 16.9925 13.6587 16.8587L3.08534 12.6187C2.95909 12.568 2.85137 12.4799 2.77662 12.3663C2.70186 12.2526 2.66367 12.1189 2.66715 11.9829C2.67063 11.8469 2.71563 11.7152 2.7961 11.6056C2.87657 11.4959 2.98867 11.4135 3.11734 11.3693L28.4507 2.70266C28.5688 2.65999 28.6967 2.65184 28.8193 2.67918C28.9419 2.70652 29.0541 2.76821 29.143 2.85703C29.2318 2.94585 29.2935 3.05813 29.3208 3.18073C29.3482 3.30333 29.34 3.43118 29.2973 3.54933L20.6307 28.8827C20.5865 29.0113 20.5041 29.1234 20.3944 29.2039C20.2848 29.2844 20.1531 29.3294 20.0171 29.3328C19.8811 29.3363 19.7474 29.2981 19.6337 29.2234C19.5201 29.1486 19.432 29.0409 19.3813 28.9147L15.1413 18.3387C15.0069 18.0047 14.8062 17.7013 14.5514 17.447ZM14.5514 17.447L29.1387 2.86266" stroke="#0D7377" stroke-width="2" stroke-linecap="round" stroke-linejoin="round"/>
</svg>
