<?xml version="1.0" encoding="UTF-8"?>
<svg version="1.1" xmlns="http://www.w3.org/2000/svg" width="1617" height="207">
<path d="M0 0 C8.25 0 16.5 0 25 0 C25 0.66 25 1.32 25 2 C29.29 2.33 33.58 2.66 38 3 C38 3.66 38 4.32 38 5 C40.64 5.33 43.28 5.66 46 6 C46 6.66 46 7.32 46 8 C48.97 8.495 48.97 8.495 52 9 C52 9.66 52 10.32 52 11 C53.32 11.33 54.64 11.66 56 12 C56 12.66 56 13.32 56 14 C57.32 14.33 58.64 14.66 60 15 C60 15.66 60 16.32 60 17 C60.61875 17.061875 61.2375 17.12375 61.875 17.1875 C64 18 64 18 65.25 20.5625 C65.4975 21.366875 65.745 22.17125 66 23 C66.66 23 67.32 23 68 23 C68 23.99 68 24.98 68 26 C69.485 26.495 69.485 26.495 71 27 C72.5 29.5 72.5 29.5 74 33 C74.28230469 33.6290625 74.56460937 34.258125 74.85546875 34.90625 C77.85943002 42.46551403 77 46.95396474 77 56 C63.8 56 50.6 56 37 56 C37 53.03 37 50.06 37 47 C36.34 47 35.68 47 35 47 C34.505 44.03 34.505 44.03 34 41 C33.34 41 32.68 41 32 41 C31.360625 40.195625 30.72125 39.39125 30.0625 38.5625 C28.18964068 35.76279268 28.18964068 35.76279268 25 35 C25 34.34 25 33.68 25 33 C18.07 32.505 18.07 32.505 11 32 C11 31.34 11 30.68 11 30 C10.34 30 9.68 30 9 30 C9 30.66 9 31.32 9 32 C4.05 32.495 4.05 32.495 -1 33 C-1 33.66 -1 34.32 -1 35 C-3.475 35.495 -3.475 35.495 -6 36 C-6.33 36.99 -6.66 37.98 -7 39 C-7.66 39 -8.32 39 -9 39 C-9.144375 39.94875 -9.28875 40.8975 -9.4375 41.875 C-10 45 -10 45 -11 47 C-11.19738723 49.10955062 -11.19738723 49.10955062 -11.1875 51.4375 C-11.20167969 52.21996094 -11.21585938 53.00242188 -11.23046875 53.80859375 C-11.14086064 56.29205987 -11.14086064 56.29205987 -9 59 C-9 59.99 -9 60.98 -9 62 C-8.01 62.33 -7.02 62.66 -6 63 C-6 63.66 -6 64.32 -6 65 C-5.01 65.33 -4.02 65.66 -3 66 C-3 66.66 -3 67.32 -3 68 C-0.03 68.495 -0.03 68.495 3 69 C3 69.66 3 70.32 3 71 C5.97 71.495 5.97 71.495 9 72 C9 72.66 9 73.32 9 74 C11.64 74.33 14.28 74.66 17 75 C17 75.66 17 76.32 17 77 C19.64 77.33 22.28 77.66 25 78 C25 78.66 25 79.32 25 80 C27.97 80.33 30.94 80.66 34 81 C34 81.66 34 82.32 34 83 C36.31 83.33 38.62 83.66 41 84 C41 84.66 41 85.32 41 86 C43.64 86.33 46.28 86.66 49 87 C49 87.66 49 88.32 49 89 C50.4540625 89.185625 50.4540625 89.185625 51.9375 89.375 C52.948125 89.58125 53.95875 89.7875 55 90 C55.33 90.66 55.66 91.32 56 92 C57.485 92.495 57.485 92.495 59 93 C59 93.66 59 94.32 59 95 C60.485 95.495 60.485 95.495 62 96 C62 96.66 62 97.32 62 98 C62.721875 98.04125 63.44375 98.0825 64.1875 98.125 C68.28189875 99.39881294 69.52448804 101.53428325 72 105 C72 105.66 72 106.32 72 107 C72.66 107 73.32 107 74 107 C74 107.99 74 108.98 74 110 C74.66 110 75.32 110 76 110 C82.28628511 122.90824564 84.77181985 138.68161135 80.90234375 152.83203125 C78.82382086 157.82588496 76.15192462 162.60663337 73 167 C72.34 167 71.68 167 71 167 C70.67 168.32 70.34 169.64 70 171 C69.34 171 68.68 171 68 171 C68 171.66 68 172.32 68 173 C66.02709413 175.34869747 64.99693138 176.00102287 62 177 C61.505 177.515625 61.01 178.03125 60.5 178.5625 C59 180 59 180 56 180 C56 180.66 56 181.32 56 182 C54.02 182.33 52.04 182.66 50 183 C50 183.66 50 184.32 50 185 C47.69 185.33 45.38 185.66 43 186 C43 186.66 43 187.32 43 188 C38.9472484 188.98248524 35.16138263 189.08159574 31 189 C31 189.66 31 190.32 31 191 C20.77 191 10.54 191 0 191 C0 190.34 0 189.68 0 189 C-0.60328125 189.01160156 -1.2065625 189.02320313 -1.828125 189.03515625 C-2.62734375 189.04417969 -3.4265625 189.05320313 -4.25 189.0625 C-5.43335938 189.07990234 -5.43335938 189.07990234 -6.640625 189.09765625 C-8.90691002 189.00385306 -10.8288895 188.63241063 -13 188 C-13 187.34 -13 186.68 -13 186 C-15.97 185.67 -18.94 185.34 -22 185 C-22 184.34 -22 183.68 -22 183 C-23.98 182.67 -25.96 182.34 -28 182 C-28 181.34 -28 180.68 -28 180 C-28.99 179.67 -29.98 179.34 -31 179 C-31 178.34 -31 177.68 -31 177 C-31.763125 176.896875 -32.52625 176.79375 -33.3125 176.6875 C-36.18416484 175.95288806 -37.23042094 175.3283935 -39 173 C-39 172.34 -39 171.68 -39 171 C-39.99 171 -40.98 171 -42 171 C-42.33 170.01 -42.66 169.02 -43 168 C-43.7734375 167.2575 -43.7734375 167.2575 -44.5625 166.5 C-46 165 -46 165 -46 162 C-46.66 162 -47.32 162 -48 162 C-48.33 161.01 -48.66 160.02 -49 159 C-49.66 158.67 -50.32 158.34 -51 158 C-51.4140625 155.93359375 -51.4140625 155.93359375 -51.625 153.4375 C-51.69976563 152.61121094 -51.77453125 151.78492188 -51.8515625 150.93359375 C-51.92503906 149.97646484 -51.92503906 149.97646484 -52 149 C-52.66 149 -53.32 149 -54 149 C-54.91558459 144.87986934 -55.05401513 140.96579098 -55.03125 136.765625 C-55.02673828 135.68571289 -55.02222656 134.60580078 -55.01757812 133.49316406 C-55.01177734 132.67041992 -55.00597656 131.84767578 -55 131 C-49.46411467 130.97535225 -43.928261 130.95716504 -38.39233398 130.94506836 C-36.5075627 130.94002756 -34.62279535 130.93319502 -32.73803711 130.92456055 C-30.03498364 130.91248383 -27.33198169 130.90676932 -24.62890625 130.90234375 C-23.78099014 130.89718246 -22.93307404 130.89202118 -22.0594635 130.88670349 C-20.03928932 130.88650805 -18.01922066 130.93793789 -16 131 C-14.10846411 132.89153589 -14.57559137 136.20397656 -14.37890625 138.7734375 C-14.10799175 141.27920078 -14.10799175 141.27920078 -12 144 C-12 144.99 -12 145.98 -12 147 C-11.34 147 -10.68 147 -10 147 C-9.505 149.475 -9.505 149.475 -9 152 C-8.01 152.33 -7.02 152.66 -6 153 C-6 153.66 -6 154.32 -6 155 C-4.02 155.33 -2.04 155.66 0 156 C0 156.66 0 157.32 0 158 C3.63 158.33 7.26 158.66 11 159 C11 159.66 11 160.32 11 161 C13.97 161 16.94 161 20 161 C20 160.34 20 159.68 20 159 C23.63 158.67 27.26 158.34 31 158 C31 157.34 31 156.68 31 156 C31.99 155.67 32.98 155.34 34 155 C35.33827304 153.33729713 36.67189785 151.67083819 38 150 C38.66 150 39.32 150 40 150 C40.33 147.69 40.66 145.38 41 143 C41.66 143 42.32 143 43 143 C43 140.03 43 137.06 43 134 C42.34 134 41.68 134 41 134 C40.67 131.36 40.34 128.72 40 126 C38.515 125.505 38.515 125.505 37 125 C37 124.34 37 123.68 37 123 C36.195625 122.87625 35.39125 122.7525 34.5625 122.625 C33.716875 122.41875 32.87125 122.2125 32 122 C31.67 121.34 31.34 120.68 31 120 C29.515 119.505 29.515 119.505 28 119 C28 118.34 28 117.68 28 117 C26.02 116.67 24.04 116.34 22 116 C22 115.34 22 114.68 22 114 C18.7 113.67 15.4 113.34 12 113 C12 112.34 12 111.68 12 111 C9.69 110.67 7.38 110.34 5 110 C5 109.34 5 108.68 5 108 C2.03 107.67 -0.94 107.34 -4 107 C-4 106.34 -4 105.68 -4 105 C-6.64 104.67 -9.28 104.34 -12 104 C-12 103.34 -12 102.68 -12 102 C-14.31 101.67 -16.62 101.34 -19 101 C-19 100.34 -19 99.68 -19 99 C-20.65 98.67 -22.3 98.34 -24 98 C-24 97.34 -24 96.68 -24 96 C-25.36125 95.9071875 -25.36125 95.9071875 -26.75 95.8125 C-30.8298899 94.79252752 -31.58523422 93.34951383 -34 90 C-34.825 89.34 -35.65 88.68 -36.5 88 C-39.11834432 85.90532454 -40.93935765 83.62909541 -43 81 C-43.66 80.67 -44.32 80.34 -45 80 C-45.625 76.9375 -45.625 76.9375 -46 74 C-46.66 74 -47.32 74 -48 74 C-48.33 71.03 -48.66 68.06 -49 65 C-49.66 65 -50.32 65 -51 65 C-51 57.41 -51 49.82 -51 42 C-50.34 42 -49.68 42 -49 42 C-48.67 38.7 -48.34 35.4 -48 32 C-47.34 32 -46.68 32 -46 32 C-45.67 30.02 -45.34 28.04 -45 26 C-44.34 26 -43.68 26 -43 26 C-42.67 25.01 -42.34 24.02 -42 23 C-41.34 23 -40.68 23 -40 23 C-39.938125 22.2575 -39.87625 21.515 -39.8125 20.75 C-38.74257307 17.12870887 -37.13114488 16.01287885 -34 14 C-33.01 14 -32.02 14 -31 14 C-30.67 13.01 -30.34 12.02 -30 11 C-29.01 11 -28.02 11 -27 11 C-27 10.34 -27 9.68 -27 9 C-25.35 8.67 -23.7 8.34 -22 8 C-22 7.34 -22 6.68 -22 6 C-17.545 5.505 -17.545 5.505 -13 5 C-13 4.34 -13 3.68 -13 3 C-6.565 2.505 -6.565 2.505 0 2 C0 1.34 0 0.68 0 0 Z " fill="#0C7276" transform="translate(973,1)"/>
<path d="M0 0 C0 0.66 0 1.32 0 2 C3.63 2.33 7.26 2.66 11 3 C11 3.66 11 4.32 11 5 C13.31 5.33 15.62 5.66 18 6 C18 6.66 18 7.32 18 8 C19.65 8.33 21.3 8.66 23 9 C23 9.66 23 10.32 23 11 C24.32 11.33 25.64 11.66 27 12 C27 12.66 27 13.32 27 14 C28.32 14.33 29.64 14.66 31 15 C31 15.66 31 16.32 31 17 C31.61875 17.061875 32.2375 17.12375 32.875 17.1875 C33.57625 17.455625 34.2775 17.72375 35 18 C35.70211894 19.65204456 36.36971413 21.31923769 37 23 C38.485 23.495 38.485 23.495 40 24 C41.60546875 25.9609375 41.60546875 25.9609375 43.1875 28.375 C43.71730469 29.16648437 44.24710938 29.95796875 44.79296875 30.7734375 C46 33 46 33 46 36 C46.66 36 47.32 36 48 36 C48.63103848 37.8104065 49.25446875 39.62346521 49.875 41.4375 C50.39707031 42.95150391 50.39707031 42.95150391 50.9296875 44.49609375 C53.38704723 52.54080791 54.36125091 59.88973607 54.3125 68.3125 C54.30686035 69.33069824 54.3012207 70.34889648 54.29541016 71.39794922 C54.09131445 84.02561326 50.58057087 93.80273806 45 105 C44.34 105 43.68 105 43 105 C42.9175 105.7425 42.835 106.485 42.75 107.25 C41.85190201 110.54302595 40.61583926 111.85976788 38 114 C37.34 114 36.68 114 36 114 C35.505 115.485 35.505 115.485 35 117 C34.34 117 33.68 117 33 117 C32.505 118.485 32.505 118.485 32 120 C31.34 120 30.68 120 30 120 C29.505 121.485 29.505 121.485 29 123 C28.34 123 27.68 123 27 123 C27 123.66 27 124.32 27 125 C25.35 125.33 23.7 125.66 22 126 C22 126.66 22 127.32 22 128 C20.02 128.33 18.04 128.66 16 129 C16 129.66 16 130.32 16 131 C13.69 131.33 11.38 131.66 9 132 C9 132.66 9 133.32 9 134 C6.00519083 134.8723412 3.36424089 135.10829766 0.25 135.0625 C-0.54921875 135.05347656 -1.3484375 135.04445312 -2.171875 135.03515625 C-3.07679687 135.01775391 -3.07679687 135.01775391 -4 135 C-4 135.66 -4 136.32 -4 137 C-13.24 137 -22.48 137 -32 137 C-32 136.34 -32 135.68 -32 135 C-32.61488281 135.01160156 -33.22976563 135.02320313 -33.86328125 135.03515625 C-34.67152344 135.04417969 -35.47976563 135.05320313 -36.3125 135.0625 C-37.11300781 135.07410156 -37.91351562 135.08570313 -38.73828125 135.09765625 C-41 135 -41 135 -44 134 C-44 133.34 -44 132.68 -44 132 C-46.31 131.67 -48.62 131.34 -51 131 C-51 130.34 -51 129.68 -51 129 C-52.98 128.67 -54.96 128.34 -57 128 C-57 127.34 -57 126.68 -57 126 C-58.11375 125.9071875 -58.11375 125.9071875 -59.25 125.8125 C-62.87017367 124.74290323 -63.77383898 122.99140387 -66 120 C-66.825 119.34 -67.65 118.68 -68.5 118 C-71.14921544 115.88062764 -73.07059445 113.78691913 -75 111 C-75 110.01 -75 109.02 -75 108 C-75.99 107.67 -76.98 107.34 -78 107 C-78 106.01 -78 105.02 -78 104 C-78.66 104 -79.32 104 -80 104 C-80.495 101.03 -80.495 101.03 -81 98 C-81.66 98 -82.32 98 -83 98 C-83.33 95.03 -83.66 92.06 -84 89 C-84.66 89 -85.32 89 -86 89 C-86.81516688 84.71895725 -87.12849919 80.6719284 -87.1328125 76.31640625 C-87.13410156 75.05892578 -87.13539062 73.80144531 -87.13671875 72.50585938 C-87.13285156 71.20455078 -87.12898438 69.90324219 -87.125 68.5625 C-87.12886719 67.26505859 -87.13273437 65.96761719 -87.13671875 64.63085938 C-87.13542969 63.37208984 -87.13414063 62.11332031 -87.1328125 60.81640625 C-87.13112061 59.10626343 -87.13112061 59.10626343 -87.12939453 57.36157227 C-86.99420419 53.84942927 -86.55481934 50.46858507 -86 47 C-85.34 47 -84.68 47 -84 47 C-83.67 44.36 -83.34 41.72 -83 39 C-82.34 39 -81.68 39 -81 39 C-80.505 36.03 -80.505 36.03 -80 33 C-79.34 33 -78.68 33 -78 33 C-77.67 31.68 -77.34 30.36 -77 29 C-76.34 29 -75.68 29 -75 29 C-74.938125 28.2575 -74.87625 27.515 -74.8125 26.75 C-73.7547503 23.16992409 -71.93137344 22.19853008 -69 20 C-68.67 19.01 -68.34 18.02 -68 17 C-67.01 17 -66.02 17 -65 17 C-65 16.34 -65 15.68 -65 15 C-63.23042094 12.6716065 -62.18416484 12.04711194 -59.3125 11.3125 C-58.549375 11.209375 -57.78625 11.10625 -57 11 C-57 10.34 -57 9.68 -57 9 C-55.02 8.67 -53.04 8.34 -51 8 C-51 7.34 -51 6.68 -51 6 C-49.02 5.67 -47.04 5.34 -45 5 C-45 4.34 -45 3.68 -45 3 C-41.7 2.67 -38.4 2.34 -35 2 C-35 1.34 -35 0.68 -35 0 C-23.20567437 -1.0574223 -11.80088222 -0.83375798 0 0 Z M-21 30 C-21 30.66 -21 31.32 -21 32 C-24.63 32.33 -28.26 32.66 -32 33 C-32 33.66 -32 34.32 -32 35 C-33.32 35.33 -34.64 35.66 -36 36 C-36 36.66 -36 37.32 -36 38 C-36.99 38.33 -37.98 38.66 -39 39 C-39 39.66 -39 40.32 -39 41 C-39.66 41 -40.32 41 -41 41 C-41 41.99 -41 42.98 -41 44 C-41.99 44.33 -42.98 44.66 -44 45 C-48.48673429 52.35824423 -49.34642473 60.03095172 -49.3125 68.4375 C-49.32861328 69.23220703 -49.34472656 70.02691406 -49.36132812 70.84570312 C-49.36610242 76.71330998 -48.15198339 81.55531103 -46 87 C-45.34 87 -44.68 87 -44 87 C-43.896875 87.7425 -43.79375 88.485 -43.6875 89.25 C-42.95066203 92.1973519 -42.05200858 93.78383074 -40 96 C-39.34 96 -38.68 96 -38 96 C-37.67 96.99 -37.34 97.98 -37 99 C-36.34 99 -35.68 99 -35 99 C-35 99.66 -35 100.32 -35 101 C-33.35 101.33 -31.7 101.66 -30 102 C-30 102.66 -30 103.32 -30 104 C-27.2670814 104.76797796 -24.83222214 105.12805332 -21.99609375 105.1328125 C-21.25552734 105.13410156 -20.51496094 105.13539063 -19.75195312 105.13671875 C-18.98818359 105.13285156 -18.22441406 105.12898438 -17.4375 105.125 C-16.66986328 105.12886719 -15.90222656 105.13273437 -15.11132812 105.13671875 C-11.82072861 105.130981 -9.14241093 105.04747031 -6 104 C-6 103.34 -6 102.68 -6 102 C-3.03 101.505 -3.03 101.505 0 101 C0 100.34 0 99.68 0 99 C0.99 98.67 1.98 98.34 3 98 C3 97.34 3 96.68 3 96 C3.99 95.67 4.98 95.34 6 95 C6 94.34 6 93.68 6 93 C6.66 93 7.32 93 8 93 C8.33 92.01 8.66 91.02 9 90 C9.66 89.67 10.32 89.34 11 89 C11.46523063 87.10466658 11.46523063 87.10466658 11.625 84.9375 C11.810625 82.9884375 11.810625 82.9884375 12 81 C12.66 81 13.32 81 14 81 C14.88486131 76.44928468 15.13441708 72.13320326 15.125 67.5 C15.12757812 66.2315625 15.13015625 64.963125 15.1328125 63.65625 C15.0123121 60.33894482 14.6326624 57.25369236 14 54 C13.34 54 12.68 54 12 54 C11.505 50.535 11.505 50.535 11 47 C10.34 47 9.68 47 9 47 C8.938125 46.2575 8.87625 45.515 8.8125 44.75 C7.75439525 41.16872239 5.96747764 40.15142129 3 38 C2.505 37.01 2.505 37.01 2 36 C-1.02934491 35.34227572 -1.02934491 35.34227572 -4 35 C-4 34.34 -4 33.68 -4 33 C-9.445 32.505 -9.445 32.505 -15 32 C-15 31.34 -15 30.68 -15 30 C-16.98 30 -18.96 30 -21 30 Z " fill="#0C7276" transform="translate(1296,55)"/>
<path d="M0 0 C1.49433737 2.98867474 1.16164014 6.05756294 1.17358398 9.33618164 C1.180271 10.09254913 1.18695801 10.84891663 1.19384766 11.62820435 C1.20791524 13.27440329 1.21980383 14.92062194 1.22979546 16.56685066 C1.24620676 19.178138 1.26944898 21.78928146 1.29469299 24.40049744 C1.36543453 31.82641404 1.42535353 39.25239211 1.47680664 46.6784668 C1.50875158 51.21960977 1.55007509 55.76059168 1.59700203 60.30160332 C1.61294091 62.02739983 1.62529957 63.75323347 1.63390923 65.47908211 C1.66268075 77.86942572 1.66268075 77.86942572 4 90 C4.66 90 5.32 90 6 90 C6.33 91.65 6.66 93.3 7 95 C7.99 95.33 8.98 95.66 10 96 C10 96.66 10 97.32 10 98 C11.32 98.33 12.64 98.66 14 99 C14 99.66 14 100.32 14 101 C16.97 101.33 19.94 101.66 23 102 C23 102.66 23 103.32 23 104 C25.31 104 27.62 104 30 104 C30 103.34 30 102.68 30 102 C33.63 101.67 37.26 101.34 41 101 C41 100.34 41 99.68 41 99 C41.99 98.67 42.98 98.34 44 98 C45.33827304 96.33729713 46.67189785 94.67083819 48 93 C48.66 93 49.32 93 50 93 C50.33 91.02 50.66 89.04 51 87 C51.66 87 52.32 87 53 87 C53.33 58.29 53.66 29.58 54 0 C66.87 0 79.74 0 93 0 C93 43.23 93 86.46 93 131 C80.13 131 67.26 131 54 131 C54 128.03 54 125.06 54 122 C53.01 122.99 52.02 123.98 51 125 C47.8125 125.6875 47.8125 125.6875 45 126 C45 126.66 45 127.32 45 128 C43.02 128.33 41.04 128.66 39 129 C39 129.66 39 130.32 39 131 C35.7 131.33 32.4 131.66 29 132 C29 132.66 29 133.32 29 134 C21.08 134 13.16 134 5 134 C5 133.34 5 132.68 5 132 C1.37 131.67 -2.26 131.34 -6 131 C-6 130.34 -6 129.68 -6 129 C-7.98 128.67 -9.96 128.34 -12 128 C-12 127.34 -12 126.68 -12 126 C-13.32 125.67 -14.64 125.34 -16 125 C-16 124.34 -16 123.68 -16 123 C-17.485 122.505 -17.485 122.505 -19 122 C-19 121.34 -19 120.68 -19 120 C-20.65 119.67 -22.3 119.34 -24 119 C-24.495 116.525 -24.495 116.525 -25 114 C-25.99 113.67 -26.98 113.34 -28 113 C-28 112.01 -28 111.02 -28 110 C-28.66 110 -29.32 110 -30 110 C-30.495 107.03 -30.495 107.03 -31 104 C-31.66 104 -32.32 104 -33 104 C-33 103.01 -33 102.02 -33 101 C-33.66 101 -34.32 101 -35 101 C-35.95261487 96.23692563 -36.08333357 91.8333472 -36 87 C-36.66 87 -37.32 87 -38 87 C-38 58.29 -38 29.58 -38 0 C-6 -1 -6 -1 0 0 Z " fill="#0C7276" transform="translate(1400,58)"/>
<path d="M0 0 C15.23227936 11.67313759 21.65547752 26.63467342 25.87109375 44.90234375 C15.31109375 44.90234375 4.75109375 44.90234375 -6.12890625 44.90234375 C-7.77890625 40.94234375 -9.42890625 36.98234375 -11.12890625 32.90234375 C-18.16530937 22.54688256 -26.1609268 16.58671883 -38.3046875 13.31640625 C-54.92821974 10.87920788 -71.36360303 12.73210254 -85.12890625 22.90234375 C-98.20517642 33.50601011 -103.62658846 49.2289173 -105.81640625 65.45703125 C-107.74878229 86.7614771 -105.00774397 108.86694728 -91.12890625 125.90234375 C-81.22558673 136.62796056 -69.21831386 140.94205104 -54.8359375 142.1875 C-41.57361154 142.55903897 -27.51353961 139.91464617 -17.37890625 130.83984375 C-13.09691866 126.2440462 -10.707057 120.56150438 -8.12890625 114.90234375 C-7.13890625 112.92234375 -7.13890625 112.92234375 -6.12890625 110.90234375 C4.43109375 110.90234375 14.99109375 110.90234375 25.87109375 110.90234375 C22.36017441 124.9460211 22.36017441 124.9460211 19.12109375 131.15234375 C18.77183838 131.83417725 18.42258301 132.51601074 18.06274414 133.21850586 C15.29371738 138.45501944 12.1214224 142.75949467 7.87109375 146.90234375 C7.34128906 147.49015625 6.81148437 148.07796875 6.265625 148.68359375 C-6.82709427 162.86478136 -26.68555672 168.38911508 -45.47265625 169.1875 C-69.73058706 169.7778712 -92.60330456 164.34508337 -110.8269043 147.37036133 C-128.51002156 130.03780975 -136.13182062 106.07782189 -136.42138672 81.82202148 C-136.50499563 68.46773427 -136.44798071 55.6930722 -132.12890625 42.90234375 C-131.79947021 41.90895996 -131.79947021 41.90895996 -131.46337891 40.89550781 C-126.91170598 27.59160888 -119.9585922 16.90387736 -110.12890625 6.90234375 C-109.5153125 6.27585937 -108.90171875 5.649375 -108.26953125 5.00390625 C-80.10424322 -21.59664356 -30.91924032 -20.72862928 0 0 Z " fill="#FEFEFE" transform="translate(136.12890625,14.09765625)"/>
<path d="M0 0 C1.05123047 -0.01611328 2.10246094 -0.03222656 3.18554688 -0.04882812 C18.44243035 -0.05820544 31.52159041 4.58110951 42.6875 15.12890625 C54.26299432 27.76699477 55.76152422 44.21579697 55.93359375 60.55078125 C55.9664933 62.6907599 55.99970551 64.83073376 56.03320312 66.97070312 C56.08079699 70.31287764 56.12534999 73.65502756 56.16430664 76.99731445 C56.20393816 80.24448843 56.25545393 83.4913042 56.30859375 86.73828125 C56.3170079 87.73934402 56.32542206 88.7404068 56.33409119 89.77180481 C56.35073318 90.70344955 56.36737518 91.6350943 56.38452148 92.5949707 C56.39998268 93.82000053 56.39998268 93.82000053 56.41575623 95.06977844 C56.60877156 97.71567363 56.60877156 97.71567363 58.6875 101.3125 C61.9875 102.3025 65.2875 103.2925 68.6875 104.3125 C68.6875 112.5625 68.6875 120.8125 68.6875 129.3125 C56.07398857 129.3125 45.80766243 128.30502316 35.6875 120.3125 C30.6875 114.89489278 30.6875 114.89489278 30.6875 111.3125 C30.06875 111.9725 29.45 112.6325 28.8125 113.3125 C16.67579075 125.34664551 3.18678907 132.46865998 -14.125 132.75 C-25.83111866 132.65884177 -37.20115576 129.99788183 -46.3125 122.3125 C-46.94671875 121.78785156 -47.5809375 121.26320313 -48.234375 120.72265625 C-55.22926644 114.37045782 -58.88473694 106.32222038 -59.55078125 96.96484375 C-59.77434703 85.77478804 -58.56170736 76.68983845 -51.125 67.875 C-39.65577986 56.18126005 -23.12043208 52.31433018 -7.18571472 52.12477112 C-2.81084968 52.11189343 1.562872 52.14529077 5.9375 52.1875 C7.76171382 52.19755345 9.58593302 52.2066751 11.41015625 52.21484375 C15.83607279 52.23666172 20.26172547 52.27106016 24.6875 52.3125 C24.40486266 50.41419799 24.11260779 48.5173266 23.81640625 46.62109375 C23.65470947 45.56462646 23.4930127 44.50815918 23.32641602 43.41967773 C22.17403542 37.81541794 20.1691941 33.19066051 15.53515625 29.68359375 C8.15705681 25.37458726 0.48680441 24.12469066 -7.90625 25.84375 C-13.49567756 27.39262752 -19.26463163 29.02370478 -22.4921875 34.20703125 C-23.51344462 36.21600055 -24.42301652 38.24242934 -25.3125 40.3125 C-25.9725 41.6325 -26.6325 42.9525 -27.3125 44.3125 C-37.2125 44.3125 -47.1125 44.3125 -57.3125 44.3125 C-54.71623815 30.03305982 -50.40248093 19.42695063 -38.6875 10.6875 C-26.58166296 2.58660153 -14.32881667 -0.04344699 0 0 Z M-27.3125 82.3125 C-29.52456889 86.73663779 -28.71723684 92.4967182 -28.3125 97.3125 C-26.15811868 102.42915564 -23.16468544 104.3047501 -18.3125 106.55078125 C-9.93457862 109.74159115 -1.46783549 108.79633264 6.6875 105.3125 C15.13612488 100.55442967 21.28702121 92.93193485 24.27734375 83.74609375 C24.66019515 81.47450876 24.72843614 79.45720973 24.71313477 77.16040039 C24.70044556 75.2556897 24.70044556 75.2556897 24.6875 73.3125 C19.88610134 73.23765805 15.08505138 73.18357546 10.28320312 73.14770508 C8.65391109 73.13273234 7.02465855 73.11234679 5.39550781 73.08618164 C-12.65362421 72.70073325 -12.65362421 72.70073325 -27.3125 82.3125 Z " fill="#FEFEFE" transform="translate(396.3125,50.6875)"/>
<path d="M0 0 C0 0.66 0 1.32 0 2 C2.97 2.33 5.94 2.66 9 3 C9 3.66 9 4.32 9 5 C11.64 5.33 14.28 5.66 17 6 C17 6.66 17 7.32 17 8 C18.32 8.33 19.64 8.66 21 9 C21 9.66 21 10.32 21 11 C21.804375 11.12375 22.60875 11.2475 23.4375 11.375 C24.283125 11.58125 25.12875 11.7875 26 12 C26.495 12.99 26.495 12.99 27 14 C27.99 14.33 28.98 14.66 30 15 C30 15.66 30 16.32 30 17 C31.485 17.495 31.485 17.495 33 18 C33.66666667 19.66666667 34.33333333 21.33333333 35 23 C36.485 23.495 36.485 23.495 38 24 C38.495 26.475 38.495 26.475 39 29 C39.66 29 40.32 29 41 29 C41.82065069 30.87144695 42.6311584 32.74734336 43.4375 34.625 C43.88996094 35.66914062 44.34242188 36.71328125 44.80859375 37.7890625 C45.96348348 40.901585 46.65667184 43.70211546 47 47 C46 48 46 48 42.21459961 48.11352539 C40.52717271 48.11336622 38.83974095 48.10766917 37.15234375 48.09765625 C35.82270348 48.09553383 35.82270348 48.09553383 34.46620178 48.09336853 C31.62326746 48.08775215 28.78041069 48.07519691 25.9375 48.0625 C24.01497509 48.05748711 22.09244896 48.05292384 20.16992188 48.04882812 C15.44658451 48.03777741 10.72330542 48.02050183 6 48 C5.505 45.03 5.505 45.03 5 42 C3.515 41.505 3.515 41.505 2 41 C2 40.01 2 39.02 2 38 C1.34 38 0.68 38 0 38 C-0.33 37.34 -0.66 36.68 -1 36 C-2.485 35.505 -2.485 35.505 -4 35 C-4 34.34 -4 33.68 -4 33 C-5.98 32.67 -7.96 32.34 -10 32 C-10 31.34 -10 30.68 -10 30 C-14.95 30 -19.9 30 -25 30 C-25 30.66 -25 31.32 -25 32 C-28.465 32.495 -28.465 32.495 -32 33 C-32 33.66 -32 34.32 -32 35 C-32.61875 35.061875 -33.2375 35.12375 -33.875 35.1875 C-36.2041587 35.79670948 -36.2041587 35.79670948 -37 38.125 C-37.495 39.548125 -37.495 39.548125 -38 41 C-38.66 42.134375 -39.32 43.26875 -40 44.4375 C-47.02414244 56.57960496 -46.26139393 72.75621803 -43 86 C-42.0819025 88.46398498 -41.0654162 90.80328868 -39.90234375 93.16015625 C-39 95 -39 95 -38 98 C-37.01 98.33 -36.02 98.66 -35 99 C-35 99.66 -35 100.32 -35 101 C-33.68 101.33 -32.36 101.66 -31 102 C-31 102.66 -31 103.32 -31 104 C-22.09 104 -13.18 104 -4 104 C-3.505 102.515 -3.505 102.515 -3 101 C-2.01 101 -1.02 101 0 101 C0 100.34 0 99.68 0 99 C0.66 99 1.32 99 2 99 C2.495 97.02 2.495 97.02 3 95 C3.66 95 4.32 95 5 95 C4.979375 94.195625 4.95875 93.39125 4.9375 92.5625 C5 90 5 90 6 89 C9.02977804 88.91128727 12.03667022 88.8848065 15.06640625 88.90234375 C15.97502914 88.9037587 16.88365204 88.90517365 17.81980896 88.90663147 C20.73407221 88.91224807 23.64825981 88.92480335 26.5625 88.9375 C28.53320202 88.94251286 30.50390524 88.94707614 32.47460938 88.95117188 C37.31643559 88.96222289 42.15820495 88.97949862 47 89 C45.27976309 100.05374267 40.03397209 112.83512559 31 120 C30.01 120 29.02 120 28 120 C27.505 121.485 27.505 121.485 27 123 C26.34 123 25.68 123 25 123 C25 123.66 25 124.32 25 125 C23.68 125.33 22.36 125.66 21 126 C21 126.66 21 127.32 21 128 C19.02 128.33 17.04 128.66 15 129 C15 129.66 15 130.32 15 131 C12.69 131.33 10.38 131.66 8 132 C8 132.66 8 133.32 8 134 C3.9472484 134.98248524 0.16138263 135.08159574 -4 135 C-4 135.66 -4 136.32 -4 137 C-12.91 137 -21.82 137 -31 137 C-31 136.34 -31 135.68 -31 135 C-32.2375 135.020625 -33.475 135.04125 -34.75 135.0625 C-37.6640825 135.06766681 -40.20953327 134.93015558 -43 134 C-43 133.34 -43 132.68 -43 132 C-44.98 131.67 -46.96 131.34 -49 131 C-49 130.34 -49 129.68 -49 129 C-50.98 128.67 -52.96 128.34 -55 128 C-55 127.34 -55 126.68 -55 126 C-55.763125 125.896875 -56.52625 125.79375 -57.3125 125.6875 C-60.18416484 124.95288806 -61.23042094 124.3283935 -63 122 C-63 121.34 -63 120.68 -63 120 C-64.485 119.505 -64.485 119.505 -66 119 C-66 118.34 -66 117.68 -66 117 C-67.485 116.505 -67.485 116.505 -69 116 C-69 115.34 -69 114.68 -69 114 C-69.99 113.67 -70.98 113.34 -72 113 C-72 112.01 -72 111.02 -72 110 C-72.66 110 -73.32 110 -74 110 C-74.495 107.525 -74.495 107.525 -75 105 C-75.66 105 -76.32 105 -77 105 C-77.495 102.03 -77.495 102.03 -78 99 C-78.66 99 -79.32 99 -80 99 C-80.33 96.03 -80.66 93.06 -81 90 C-81.66 90 -82.32 90 -83 90 C-83.89228631 85.41717499 -84.12880415 81.07197127 -84.1328125 76.40625 C-84.13376923 75.69650024 -84.13472595 74.98675049 -84.13571167 74.25549316 C-84.13638865 72.76293855 -84.13456818 71.2703809 -84.13037109 69.77783203 C-84.12501596 67.506768 -84.13033247 65.23590171 -84.13671875 62.96484375 C-84.13605788 61.50781207 -84.13477654 60.05078051 -84.1328125 58.59375 C-84.13168457 57.28083984 -84.13055664 55.96792969 -84.12939453 54.61523438 C-84.01119333 51.31273752 -83.63067909 48.23919787 -83 45 C-82.34 45 -81.68 45 -81 45 C-80.67 42.69 -80.34 40.38 -80 38 C-79.34 38 -78.68 38 -78 38 C-78 36.35 -78 34.7 -78 33 C-76.515 32.505 -76.515 32.505 -75 32 C-74.67 30.02 -74.34 28.04 -74 26 C-73.34 26 -72.68 26 -72 26 C-71.67 25.01 -71.34 24.02 -71 23 C-70.34 23 -69.68 23 -69 23 C-68.896875 22.236875 -68.79375 21.47375 -68.6875 20.6875 C-67.93965597 17.76410969 -67.39335648 16.77285665 -65 15 C-64.360625 14.87625 -63.72125 14.7525 -63.0625 14.625 C-60.71706153 14.13630348 -60.71706153 14.13630348 -59.125 11.5 C-57 9 -57 9 -53.75 8.1875 C-52.8425 8.125625 -51.935 8.06375 -51 8 C-51 7.34 -51 6.68 -51 6 C-49.02 5.67 -47.04 5.34 -45 5 C-45 4.34 -45 3.68 -45 3 C-41.37 2.67 -37.74 2.34 -34 2 C-34 1.34 -34 0.68 -34 0 C-22.54594341 -1.11287545 -11.46626331 -0.80226815 0 0 Z " fill="#0C7276" transform="translate(1151,55)"/>
<path d="M0 0 C1.14235107 0.00829834 2.28470215 0.01659668 3.46166992 0.02514648 C21.30342253 0.38089278 36.64017202 6.0485156 49.67578125 18.5703125 C62.4448601 32.79262491 67.88532254 49.72599925 67.48828125 68.7421875 C66.29529047 87.24332328 59.62828156 103.71491602 45.9453125 116.609375 C29.86359683 130.27626435 10.72938583 133.64389458 -9.75 132.4375 C-26.6328333 130.54099638 -42.02250221 122.79751259 -52.75 109.4375 C-64.44107905 92.08321936 -68.7307642 71.63757263 -65.06640625 50.92578125 C-61.54100504 34.48038709 -52.90418426 20.40175044 -38.96484375 10.73828125 C-26.5091306 3.42302114 -14.40268334 -0.13534153 0 0 Z M-25.75 36.4375 C-34.25362173 47.00904792 -36.46745756 58.47156613 -35.5 71.91015625 C-34.07563732 82.78363922 -30.33631954 93.10459136 -21.57421875 100.19921875 C-13.04891362 106.11678348 -4.47293028 108.35976956 5.8125 106.75 C15.40321842 104.71965293 22.97460958 100.00612364 28.98046875 92.18359375 C36.20212091 81.0747313 38.14381229 67.91726094 35.55859375 54.9765625 C32.76838965 44.95984653 28.0673859 36.29195866 19.25 30.4375 C4.00758025 22.37710176 -13.74001971 23.08429823 -25.75 36.4375 Z " fill="#FEFEFE" transform="translate(759.75,50.5625)"/>
<path d="M0 0 C11.88 0 23.76 0 36 0 C36 0.66 36 1.32 36 2 C36.99 2.33 37.98 2.66 39 3 C39 12.9 39 22.8 39 33 C48.24 33 57.48 33 67 33 C67.02291394 37.11177927 67.04283951 41.22339658 67.05493164 45.33520508 C67.0599708 46.73495228 67.06680216 48.1346942 67.07543945 49.53442383 C67.0875232 51.54245777 67.09269807 53.55052957 67.09765625 55.55859375 C67.10289307 56.76829834 67.10812988 57.97800293 67.11352539 59.22436523 C67 62 67 62 66 63 C57.09 63 48.18 63 39 63 C39.33 85.44 39.66 107.88 40 131 C41.65 131.33 43.3 131.66 45 132 C45 132.66 45 133.32 45 134 C52.26 134 59.52 134 67 134 C67 143.9 67 153.8 67 164 C55.12 164 43.24 164 31 164 C31 163.34 31 162.68 31 162 C29.3603125 162.0309375 29.3603125 162.0309375 27.6875 162.0625 C24 162 24 162 21 161 C21 160.34 21 159.68 21 159 C19.02 158.67 17.04 158.34 15 158 C15 157.34 15 156.68 15 156 C14.01 155.67 13.02 155.34 12 155 C12 154.34 12 153.68 12 153 C11.01 153 10.02 153 9 153 C9 152.01 9 151.02 9 150 C8.01 149.67 7.02 149.34 6 149 C6 148.34 6 147.68 6 147 C5.34 147 4.68 147 4 147 C3.67 145.02 3.34 143.04 3 141 C2.34 141 1.68 141 1 141 C0.21915719 136.1794082 -0.12222644 131.56903243 -0.11352539 126.68774414 C-0.11367142 125.99421844 -0.11381744 125.30069275 -0.1139679 124.58615112 C-0.1132774 122.31911977 -0.10552592 120.05217305 -0.09765625 117.78515625 C-0.095789 116.20332382 -0.09436655 114.62149081 -0.09336853 113.03965759 C-0.08956755 108.89523699 -0.07975814 104.75085195 -0.06866455 100.60644531 C-0.0583982 96.36979656 -0.05385976 92.13314201 -0.04882812 87.89648438 C-0.03813351 79.59763818 -0.02055653 71.29882763 0 63 C-5.61 63 -11.22 63 -17 63 C-17 53.1 -17 43.2 -17 33 C-11.39 33 -5.78 33 0 33 C0 22.11 0 11.22 0 0 Z " fill="#0C7276" transform="translate(1521,25)"/>
<path d="M0 0 C10.04944097 7.86574869 16.18064288 20.18637513 17.94921875 32.56640625 C7.71921875 32.56640625 -2.51078125 32.56640625 -13.05078125 32.56640625 C-15.03078125 28.93640625 -17.01078125 25.30640625 -19.05078125 21.56640625 C-27.22494928 15.18383669 -35.19333158 11.73566267 -45.7109375 12.84765625 C-53.9973858 14.3474659 -61.17117437 17.5579872 -66.43359375 24.3515625 C-74.83968225 37.01103111 -75.87342029 52.74474538 -72.92578125 67.37890625 C-70.3761585 77.04375529 -65.46563159 84.98749995 -57.05078125 90.56640625 C-48.97150473 94.79481265 -39.49984553 94.65528774 -30.80078125 92.50390625 C-21.02225026 89.11359695 -17.70208369 82.86901113 -13.05078125 73.56640625 C-2.82078125 73.56640625 7.40921875 73.56640625 17.94921875 73.56640625 C15.98383712 87.32407765 9.77139904 98.00644132 -0.98828125 107.00390625 C-16.57923189 118.61880302 -34.73598177 121.20260278 -53.70703125 119.17578125 C-70.11505214 116.24040137 -84.13183852 107.88797002 -93.80078125 94.31640625 C-105.37577267 77.26060693 -108.00080908 56.17293792 -104.36328125 36.02734375 C-99.95058731 18.26625062 -90.60888108 4.32154691 -75.05078125 -5.43359375 C-51.04942825 -17.74968227 -21.86491125 -15.28461415 0 0 Z " fill="#FEFEFE" transform="translate(578.05078125,63.43359375)"/>
<path d="M0 0 C0 7.92 0 15.84 0 24 C-8.1875 24.75 -8.1875 24.75 -10.73901367 24.95605469 C-15.56252514 25.46288746 -18.56969713 26.29660506 -22 30 C-22.87092358 32.70049471 -23.16662453 35.28491964 -23.31640625 38.109375 C-23.37356812 39.1298291 -23.37356812 39.1298291 -23.43188477 40.17089844 C-23.47498779 41.02200195 -23.51809082 41.87310547 -23.5625 42.75 C-23.706875 45.4725 -23.85125 48.195 -24 51 C-15.09 51 -6.18 51 3 51 C3 58.92 3 66.84 3 75 C-5.91 75 -14.82 75 -24 75 C-24 108.66 -24 142.32 -24 177 C-33.9 177 -43.8 177 -54 177 C-54 143.34 -54 109.68 -54 75 C-59.28 75 -64.56 75 -70 75 C-70 67.08 -70 59.16 -70 51 C-64.72 51 -59.44 51 -54 51 C-54.05220703 49.29457031 -54.05220703 49.29457031 -54.10546875 47.5546875 C-54.39257453 34.22456916 -54.478921 20.47215646 -45 10 C-32.50916409 -2.4349485 -16.30556445 -0.3469269 0 0 Z " fill="#FEFEFE" transform="translate(327,3)"/>
<path d="M0 0 C9.9 0 19.8 0 30 0 C30 9.9 30 19.8 30 30 C40.56 30 51.12 30 62 30 C62 37.92 62 45.84 62 54 C51.44 54 40.88 54 30 54 C30.12008413 65.17981655 30.12008413 65.17981655 30.2578125 76.359375 C30.31795408 80.92378484 30.37609666 85.48815493 30.421875 90.05273438 C30.45894264 93.7357388 30.50535849 97.41852095 30.55806351 101.10133362 C30.57649405 102.50138929 30.59164315 103.9014924 30.60334396 105.30162048 C30.06866527 117.45866213 30.06866527 117.45866213 34.9375 127.9375 C38.39646021 129.71938859 41.27160853 130.16127896 45.10546875 130.31640625 C45.99129639 130.35451416 46.87712402 130.39262207 47.78979492 130.43188477 C48.9110376 130.47498779 50.03228027 130.51809082 51.1875 130.5625 C54.755625 130.706875 58.32375 130.85125 62 131 C62 139.25 62 147.5 62 156 C57.94684033 156.06961534 53.89524152 156.12911319 49.84179688 156.16479492 C48.46867774 156.17969923 47.09560461 156.20002997 45.72265625 156.22631836 C31.55273283 156.4904507 20.4166695 154.8507775 9.3125 145.8125 C-0.41520819 133.98150356 -0.30505077 119.7915638 -0.1953125 105.171875 C-0.19157205 103.68687126 -0.18872997 102.20186502 -0.18673706 100.71685791 C-0.17918172 96.8502901 -0.15960519 92.98387788 -0.1373291 89.11737061 C-0.11669383 85.15509138 -0.10769794 81.19278647 -0.09765625 77.23046875 C-0.07634969 69.48690077 -0.04123603 61.7434922 0 54 C-5.94 54 -11.88 54 -18 54 C-18 46.08 -18 38.16 -18 30 C-12.06 30 -6.12 30 0 30 C0 20.1 0 10.2 0 0 Z " fill="#FEFEFE" transform="translate(622,24)"/>
<path d="M0 0 C0 9.9 0 19.8 0 30 C-2.743125 30.0825 -5.48625 30.165 -8.3125 30.25 C-18.12085394 30.71685435 -27.15761192 32.24026735 -34.56640625 39.22265625 C-39.78562995 45.69335593 -41.13771287 53.26957021 -41.20532227 61.33886719 C-41.22017166 62.43702003 -41.22017166 62.43702003 -41.23532104 63.55735779 C-41.2668382 65.97049761 -41.29165464 68.38365709 -41.31640625 70.796875 C-41.33698423 72.47268172 -41.35798093 74.14848334 -41.37937927 75.82427979 C-41.43451274 80.23008087 -41.48396042 84.63592812 -41.53222656 89.04180908 C-41.58250536 93.53963315 -41.63815811 98.03739037 -41.69335938 102.53515625 C-41.80083423 111.35671579 -41.90180606 120.17833227 -42 129 C-52.23 129 -62.46 129 -73 129 C-73 87.42 -73 45.84 -73 3 C-63.1 3 -53.2 3 -43 3 C-42.505 9.93 -42.505 9.93 -42 17 C-40.68 15.35 -39.36 13.7 -38 12 C-26.10210223 1.95984417 -15.52663629 0 0 0 Z " fill="#FEFEFE" transform="translate(917,51)"/>
<path d="M0 0 C7.14682365 5.74362034 11.79591745 13.37762687 13.72265625 22.38671875 C14.47634259 37.1415782 13.80494139 48.75032415 3.72265625 60.38671875 C-3.14017227 67.05858161 -3.14017227 67.05858161 -8.203125 67.8359375 C-12.19537608 67.25257171 -13.89701639 65.72821911 -16.90234375 63.07421875 C-17.82273438 62.27371094 -18.743125 61.47320312 -19.69140625 60.6484375 C-20.54476562 59.90207031 -21.398125 59.15570313 -22.27734375 58.38671875 C-23.59945146 57.3719237 -24.9282188 56.36530939 -26.27734375 55.38671875 C-25.10171875 55.01546875 -23.92609375 54.64421875 -22.71484375 54.26171875 C-16.80662998 52.03042525 -12.65322608 48.67985597 -9.40234375 43.26171875 C-6.48534903 35.80717668 -6.18569457 28.58714151 -8.96484375 21.01171875 C-11.53246431 15.31481064 -14.70523526 12.8778975 -20.40234375 10.51171875 C-25.94914992 8.81428475 -30.82573025 9.64776708 -36.27734375 11.38671875 C-41.58734619 14.21118813 -43.43317043 18.89071706 -45.27734375 24.38671875 C-46.89166146 31.53584002 -46.39284649 38.76332163 -43.30859375 45.50390625 C-40.27560812 50.2788093 -36.37752101 52.24728057 -31.27734375 54.38671875 C-29.93984977 55.04499839 -28.60531087 55.70942594 -27.27734375 56.38671875 C-27.85742188 56.76183594 -28.4375 57.13695313 -29.03515625 57.5234375 C-32.71270714 59.93265813 -36.24151177 62.26187112 -39.46484375 65.26171875 C-42.27734375 67.38671875 -42.27734375 67.38671875 -45.08984375 68.13671875 C-52.43854557 66.40761244 -57.17048369 60.99538759 -61.21484375 54.88671875 C-67.4007633 44.34351176 -68.49514394 32.24630035 -66.12890625 20.3046875 C-63.3614424 10.82168064 -57.96028816 2.81553437 -49.48046875 -2.30078125 C-33.1302307 -10.932379 -15.45688455 -10.94973125 0 0 Z " fill="#FEFEFE" transform="translate(239.27734375,26.61328125)"/>
<path d="M0 0 C4.45143971 2.26771457 7.0473063 5.02913606 10 9 C10.99 9.99 11.98 10.98 13 12 C1.12 12 -10.76 12 -23 12 C-17.30769231 6.30769231 -17.30769231 6.30769231 -14.3125 3.75 C-13.73113281 3.24984375 -13.14976562 2.7496875 -12.55078125 2.234375 C-8.74901996 -0.79171207 -4.66671637 -0.56661649 0 0 Z " fill="#FEFEFE" transform="translate(217,94)"/>
</svg>
